<svg width="378" height="52" viewBox="0 0 378 52" fill="none" xmlns="http://www.w3.org/2000/svg">
<path d="M378 46.7875C378 49.6673 375.709 52 372.874 52H205.132C202.3 52 200 49.6673 200 46.7875V5.21933C200 2.34087 202.3 0 205.132 0H372.873C375.709 0 377.999 2.34087 377.999 5.21933L378 46.7875Z" fill="#333333"/>
<path d="M239.171 25.738C239.132 21.5482 242.689 19.5097 242.852 19.4148C240.837 16.551 237.715 16.1597 236.617 16.1285C233.995 15.8594 231.451 17.6586 230.115 17.6586C228.752 17.6586 226.695 16.1545 224.477 16.1987C221.624 16.2416 218.955 17.8523 217.491 20.3534C214.469 25.4533 216.723 32.9478 219.617 37.0701C221.065 39.089 222.757 41.3432 224.972 41.2639C227.139 41.1768 227.948 39.9171 230.563 39.9171C233.153 39.9171 233.913 41.2639 236.172 41.2132C238.497 41.1768 239.961 39.1852 241.359 37.1481C243.032 34.8341 243.704 32.5553 243.731 32.4382C243.676 32.42 239.215 30.7599 239.171 25.738Z" fill="white"/>
<path d="M234.904 13.4167C236.069 11.9958 236.867 10.0627 236.645 8.10095C234.959 8.17375 232.849 9.23845 231.635 10.6282C230.56 11.8528 229.6 13.86 229.848 15.7476C231.743 15.8854 233.688 14.8155 234.904 13.4167Z" fill="white"/>
<path d="M270.527 40.974H267.499L265.84 35.8923H260.075L258.495 40.974H255.547L261.259 23.6736H264.787L270.527 40.974ZM265.34 33.7603L263.84 29.2428C263.681 28.7813 263.384 27.6945 262.945 25.9837H262.892C262.717 26.7195 262.436 27.8063 262.049 29.2428L260.576 33.7603H265.34Z" fill="white"/>
<path d="M285.216 34.5833C285.216 36.7049 284.628 38.3819 283.452 39.613C282.399 40.7089 281.091 41.2562 279.529 41.2562C277.844 41.2562 276.633 40.666 275.896 39.4856H275.843V46.0571H273V32.606C273 31.2722 272.964 29.9033 272.895 28.4993H275.395L275.553 30.4766H275.607C276.555 28.9868 277.993 28.2432 279.924 28.2432C281.433 28.2432 282.693 28.8243 283.701 29.9878C284.712 31.1526 285.216 32.684 285.216 34.5833ZM282.32 34.6847C282.32 33.4705 282.04 32.4695 281.477 31.6817C280.863 30.8601 280.037 30.4493 279.003 30.4493C278.301 30.4493 277.664 30.6781 277.095 31.1292C276.524 31.5842 276.151 32.1783 275.976 32.9141C275.888 33.2573 275.844 33.5381 275.844 33.7591V35.8391C275.844 36.7465 276.129 37.5122 276.7 38.1375C277.271 38.7628 278.012 39.0748 278.924 39.0748C279.995 39.0748 280.828 38.6718 281.424 37.8684C282.021 37.0637 282.32 36.0029 282.32 34.6847Z" fill="white"/>
<path d="M299.932 34.5833C299.932 36.7049 299.344 38.3819 298.167 39.613C297.115 40.7089 295.807 41.2562 294.245 41.2562C292.56 41.2562 291.349 40.666 290.613 39.4856H290.56V46.0571H287.717V32.606C287.717 31.2722 287.681 29.9033 287.612 28.4993H290.112L290.271 30.4766H290.324C291.271 28.9868 292.709 28.2432 294.641 28.2432C296.149 28.2432 297.409 28.8243 298.42 29.9878C299.427 31.1526 299.932 32.684 299.932 34.5833ZM297.036 34.6847C297.036 33.4705 296.755 32.4695 296.192 31.6817C295.577 30.8601 294.755 30.4493 293.719 30.4493C293.016 30.4493 292.38 30.6781 291.809 31.1292C291.239 31.5842 290.867 32.1783 290.692 32.9141C290.605 33.2573 290.56 33.5381 290.56 33.7591V35.8391C290.56 36.7465 290.845 37.5122 291.413 38.1375C291.984 38.7615 292.725 39.0748 293.64 39.0748C294.711 39.0748 295.544 38.6718 296.14 37.8684C296.737 37.0637 297.036 36.0029 297.036 34.6847Z" fill="white"/>
<path d="M316.385 36.1225C316.385 37.5941 315.861 38.7914 314.809 39.7157C313.653 40.7258 312.044 41.2302 309.976 41.2302C308.067 41.2302 306.536 40.8714 305.377 40.1525L306.036 37.8424C307.284 38.5782 308.653 38.9474 310.145 38.9474C311.216 38.9474 312.049 38.7108 312.648 38.2402C313.244 37.7696 313.541 37.1378 313.541 36.35C313.541 35.648 313.296 35.0565 312.804 34.5768C312.315 34.0971 311.497 33.6512 310.356 33.2391C307.249 32.1094 305.697 30.4545 305.697 28.2783C305.697 26.8561 306.241 25.69 307.331 24.7826C308.416 23.8739 309.864 23.4202 311.675 23.4202C313.289 23.4202 314.631 23.6945 315.701 24.2418L314.991 26.5012C313.991 25.9708 312.86 25.7056 311.595 25.7056C310.595 25.7056 309.813 25.9461 309.253 26.4245C308.78 26.8522 308.543 27.3735 308.543 27.991C308.543 28.6748 308.813 29.2403 309.357 29.6849C309.831 30.0957 310.691 30.5403 311.939 31.02C313.465 31.6193 314.587 32.32 315.308 33.1234C316.027 33.9242 316.385 34.9265 316.385 36.1225Z" fill="white"/>
<path d="M325.784 30.5793H322.651V36.636C322.651 38.1765 323.203 38.9461 324.309 38.9461C324.817 38.9461 325.239 38.9032 325.572 38.8174L325.651 40.9221C325.091 41.1262 324.353 41.2289 323.44 41.2289C322.317 41.2289 321.44 40.8948 320.807 40.2279C320.176 39.5597 319.859 38.4391 319.859 36.8648V30.5767H317.992V28.4967H319.859V26.2126L322.651 25.391V28.4967H325.784V30.5793Z" fill="white"/>
<path d="M339.921 34.634C339.921 36.5515 339.359 38.1258 338.236 39.3569C337.059 40.6244 335.496 41.2562 333.548 41.2562C331.671 41.2562 330.176 40.6491 329.061 39.4349C327.947 38.2207 327.389 36.688 327.389 34.8407C327.389 32.9076 327.963 31.3242 329.113 30.0931C330.261 28.8607 331.811 28.2445 333.759 28.2445C335.636 28.2445 337.147 28.8516 338.287 30.0671C339.377 31.2462 339.921 32.7685 339.921 34.634ZM336.972 34.7237C336.972 33.5732 336.72 32.5865 336.209 31.7636C335.613 30.7678 334.761 30.2712 333.657 30.2712C332.515 30.2712 331.647 30.7691 331.051 31.7636C330.54 32.5878 330.288 33.5901 330.288 34.7757C330.288 35.9262 330.54 36.9129 331.051 37.7345C331.665 38.7303 332.524 39.2269 333.632 39.2269C334.717 39.2269 335.569 38.7199 336.184 37.7085C336.708 36.87 336.972 35.8729 336.972 34.7237Z" fill="white"/>
<path d="M349.161 30.9368C348.88 30.8861 348.58 30.8601 348.265 30.8601C347.265 30.8601 346.492 31.228 345.948 31.9651C345.475 32.6151 345.237 33.4367 345.237 34.4286V40.9741H342.396L342.423 32.4279C342.423 30.9901 342.387 29.681 342.316 28.5006H344.792L344.896 30.8874H344.975C345.275 30.0671 345.748 29.4067 346.396 28.9114C347.029 28.4655 347.713 28.2432 348.451 28.2432C348.713 28.2432 348.951 28.2614 349.161 28.2939V30.9368Z" fill="white"/>
<path d="M361.875 34.1464C361.875 34.643 361.841 35.0616 361.771 35.4035H353.243C353.276 36.6359 353.688 37.5784 354.48 38.2284C355.199 38.8095 356.128 39.1007 357.269 39.1007C358.532 39.1007 359.684 38.9044 360.72 38.5105L361.165 40.4345C359.955 40.9493 358.525 41.2054 356.876 41.2054C354.892 41.2054 353.335 40.636 352.201 39.4985C351.071 38.361 350.504 36.8335 350.504 34.9173C350.504 33.0362 351.031 31.4697 352.085 30.2204C353.189 28.8866 354.681 28.2197 356.559 28.2197C358.403 28.2197 359.799 28.8866 360.747 30.2204C361.497 31.2799 361.875 32.5903 361.875 34.1464ZM359.164 33.4275C359.183 32.6059 358.997 31.8961 358.612 31.2968C358.12 30.5259 357.364 30.1411 356.347 30.1411C355.417 30.1411 354.661 30.5168 354.084 31.2708C353.611 31.8701 353.329 32.589 353.243 33.4262H359.164V33.4275Z" fill="white"/>
<path d="M264.4 13.0305C264.4 14.5606 263.929 15.7124 262.989 16.4859C262.119 17.1996 260.881 17.5571 259.279 17.5571C258.484 17.5571 257.804 17.5233 257.235 17.4557V9.09538C257.977 8.97838 258.777 8.91858 259.641 8.91858C261.168 8.91858 262.319 9.24228 263.095 9.88968C263.964 10.6216 264.4 11.6681 264.4 13.0305ZM262.927 13.0682C262.927 12.0763 262.657 11.3158 262.119 10.7854C261.58 10.2563 260.793 9.99108 259.757 9.99108C259.317 9.99108 258.943 10.0197 258.632 10.0795V16.4352C258.804 16.4612 259.119 16.4729 259.576 16.4729C260.645 16.4729 261.471 16.183 262.052 15.6032C262.633 15.0234 262.927 14.1784 262.927 13.0682Z" fill="white"/>
<path d="M272.212 14.367C272.212 15.3095 271.936 16.0817 271.384 16.6875C270.805 17.3102 270.039 17.6209 269.081 17.6209C268.159 17.6209 267.424 17.3232 266.876 16.7252C266.329 16.1285 266.056 15.3758 266.056 14.4684C266.056 13.5194 266.337 12.7407 266.903 12.1362C267.468 11.5317 268.228 11.2288 269.185 11.2288C270.108 11.2288 270.849 11.5265 271.411 12.1232C271.944 12.703 272.212 13.4518 272.212 14.367ZM270.763 14.4112C270.763 13.8457 270.637 13.3608 270.388 12.9565C270.095 12.4677 269.677 12.2233 269.135 12.2233C268.573 12.2233 268.147 12.4677 267.853 12.9565C267.603 13.3608 267.479 13.8535 267.479 14.4359C267.479 15.0014 267.604 15.4863 267.853 15.8906C268.156 16.3794 268.577 16.6238 269.121 16.6238C269.655 16.6238 270.073 16.3755 270.375 15.8776C270.633 15.4655 270.763 14.9767 270.763 14.4112Z" fill="white"/>
<path d="M282.687 11.3535L280.72 17.4817H279.44L278.625 14.8206C278.419 14.1563 278.251 13.4959 278.12 12.8407H278.095C277.973 13.5141 277.805 14.1732 277.589 14.8206L276.724 17.4817H275.429L273.58 11.3535H275.016L275.727 14.2668C275.899 14.9558 276.04 15.6123 276.153 16.2337H276.179C276.283 15.7215 276.455 15.0689 276.697 14.2798L277.589 11.3548H278.728L279.583 14.2174C279.789 14.9155 279.957 15.5876 280.087 16.235H280.125C280.22 15.6045 280.363 14.9324 280.552 14.2174L281.315 11.3548H282.687V11.3535Z" fill="white"/>
<path d="M289.931 17.4818H288.533V13.9718C288.533 12.8902 288.112 12.3494 287.267 12.3494C286.852 12.3494 286.517 12.4976 286.257 12.7953C286 13.093 285.869 13.444 285.869 13.8457V17.4805H284.472V13.1047C284.472 12.5665 284.455 11.9828 284.421 11.351H285.649L285.715 12.3091H285.753C285.916 12.0114 286.159 11.7657 286.477 11.5694C286.856 11.3406 287.28 11.2249 287.744 11.2249C288.331 11.2249 288.819 11.4095 289.207 11.78C289.689 12.2337 289.931 12.911 289.931 13.8106V17.4818Z" fill="white"/>
<path d="M293.784 17.4817H292.388V8.54163H293.784V17.4817Z" fill="white"/>
<path d="M302.011 14.367C302.011 15.3095 301.735 16.0817 301.183 16.6875C300.604 17.3102 299.836 17.6209 298.88 17.6209C297.956 17.6209 297.221 17.3232 296.675 16.7252C296.128 16.1285 295.855 15.3758 295.855 14.4684C295.855 13.5194 296.136 12.7407 296.701 12.1362C297.267 11.5317 298.027 11.2288 298.983 11.2288C299.907 11.2288 300.647 11.5265 301.209 12.1232C301.743 12.703 302.011 13.4518 302.011 14.367ZM300.56 14.4112C300.56 13.8457 300.435 13.3608 300.185 12.9565C299.893 12.4677 299.475 12.2233 298.933 12.2233C298.371 12.2233 297.944 12.4677 297.652 12.9565C297.401 13.3608 297.277 13.8535 297.277 14.4359C297.277 15.0014 297.403 15.4863 297.652 15.8906C297.955 16.3794 298.376 16.6238 298.92 16.6238C299.453 16.6238 299.871 16.3755 300.172 15.8776C300.432 15.4655 300.56 14.9767 300.56 14.4112Z" fill="white"/>
<path d="M308.773 17.4818H307.519L307.415 16.7759H307.376C306.947 17.3388 306.335 17.6209 305.54 17.6209C304.947 17.6209 304.467 17.435 304.105 17.0658C303.777 16.7304 303.613 16.3131 303.613 15.8178C303.613 15.069 303.933 14.4983 304.577 14.1031C305.22 13.7079 306.124 13.5142 307.288 13.5233V13.4089C307.288 12.6016 306.853 12.1986 305.983 12.1986C305.363 12.1986 304.816 12.3507 304.344 12.6523L304.06 11.7579C304.644 11.4056 305.365 11.2288 306.216 11.2288C307.859 11.2288 308.683 12.0738 308.683 13.7638V16.0206C308.683 16.6329 308.713 17.1204 308.773 17.4818ZM307.323 15.3758V14.4307C305.781 14.4047 305.011 14.8168 305.011 15.6657C305.011 15.9855 305.099 16.2247 305.279 16.3846C305.459 16.5445 305.688 16.6238 305.961 16.6238C306.268 16.6238 306.555 16.5289 306.816 16.3404C307.079 16.1506 307.24 15.9101 307.3 15.615C307.315 15.5487 307.323 15.4681 307.323 15.3758Z" fill="white"/>
<path d="M316.713 17.4817H315.473L315.408 16.4976H315.369C314.973 17.2464 314.299 17.6208 313.351 17.6208C312.593 17.6208 311.963 17.3309 311.463 16.7511C310.963 16.1713 310.713 15.4186 310.713 14.4943C310.713 13.5024 310.984 12.699 311.528 12.0854C312.055 11.5134 312.7 11.2274 313.468 11.2274C314.312 11.2274 314.903 11.5043 315.239 12.0594H315.265V8.54163H316.664V15.8307C316.664 16.4274 316.68 16.9773 316.713 17.4817ZM315.265 14.8973V13.8755C315.265 13.6987 315.252 13.5557 315.227 13.4465C315.148 13.1189 314.979 12.8433 314.721 12.621C314.461 12.3987 314.148 12.2869 313.787 12.2869C313.265 12.2869 312.857 12.4884 312.557 12.8927C312.26 13.297 312.109 13.8131 312.109 14.4436C312.109 15.0494 312.252 15.5408 312.539 15.9191C312.841 16.3221 313.249 16.5236 313.76 16.5236C314.219 16.5236 314.585 16.3559 314.864 16.0192C315.133 15.7085 315.265 15.3341 315.265 14.8973Z" fill="white"/>
<path d="M328.664 14.367C328.664 15.3095 328.388 16.0817 327.836 16.6875C327.257 17.3102 326.492 17.6209 325.533 17.6209C324.612 17.6209 323.877 17.3232 323.328 16.7252C322.781 16.1285 322.508 15.3758 322.508 14.4684C322.508 13.5194 322.789 12.7407 323.355 12.1362C323.92 11.5317 324.68 11.2288 325.639 11.2288C326.56 11.2288 327.303 11.5265 327.863 12.1232C328.396 12.703 328.664 13.4518 328.664 14.367ZM327.216 14.4112C327.216 13.8457 327.091 13.3608 326.841 12.9565C326.547 12.4677 326.131 12.2233 325.587 12.2233C325.027 12.2233 324.6 12.4677 324.305 12.9565C324.055 13.3608 323.931 13.8535 323.931 14.4359C323.931 15.0014 324.056 15.4863 324.305 15.8906C324.608 16.3794 325.029 16.6238 325.573 16.6238C326.107 16.6238 326.527 16.3755 326.828 15.8776C327.085 15.4655 327.216 14.9767 327.216 14.4112Z" fill="white"/>
<path d="M336.177 17.4818H334.781V13.9718C334.781 12.8902 334.36 12.3494 333.513 12.3494C333.099 12.3494 332.764 12.4976 332.505 12.7953C332.247 13.093 332.117 13.444 332.117 13.8457V17.4805H330.719V13.1047C330.719 12.5665 330.703 11.9828 330.669 11.351H331.896L331.961 12.3091H332C332.164 12.0114 332.407 11.7657 332.724 11.5694C333.104 11.3406 333.527 11.2249 333.992 11.2249C334.577 11.2249 335.065 11.4095 335.453 11.78C335.937 12.2337 336.177 12.911 336.177 13.8106V17.4818Z" fill="white"/>
<path d="M345.581 12.3741H344.043V15.3511C344.043 16.1077 344.316 16.486 344.857 16.486C345.108 16.486 345.316 16.4652 345.48 16.4223L345.516 17.4558C345.24 17.5572 344.877 17.6079 344.431 17.6079C343.879 17.6079 343.449 17.4441 343.139 17.1165C342.827 16.7889 342.672 16.2377 342.672 15.4642V12.3741H341.753V11.3536H342.672V10.2304L344.041 9.82739V11.3523H345.58V12.3741H345.581Z" fill="white"/>
<path d="M352.979 17.4817H351.58V13.9977C351.58 12.8992 351.159 12.3493 350.315 12.3493C349.667 12.3493 349.224 12.6678 348.981 13.3048C348.94 13.4387 348.916 13.6025 348.916 13.7949V17.4804H347.52V8.54163H348.916V12.2349H348.943C349.383 11.5628 350.013 11.2274 350.831 11.2274C351.409 11.2274 351.888 11.412 352.268 11.7825C352.741 12.244 352.979 12.9304 352.979 13.8378V17.4817Z" fill="white"/>
<path d="M360.609 14.1277C360.609 14.3721 360.591 14.5775 360.557 14.7452H356.367C356.385 15.351 356.585 15.8125 356.973 16.1323C357.328 16.4183 357.785 16.5613 358.345 16.5613C358.965 16.5613 359.531 16.4651 360.04 16.2714L360.259 17.2178C359.663 17.47 358.961 17.5961 358.149 17.5961C357.176 17.5961 356.409 17.3166 355.855 16.7576C355.297 16.1986 355.021 15.4485 355.021 14.5073C355.021 13.583 355.279 12.8134 355.797 12.1998C356.339 11.5446 357.071 11.217 357.995 11.217C358.899 11.217 359.585 11.5446 360.049 12.1998C360.424 12.7198 360.609 13.3633 360.609 14.1277ZM359.276 13.7754C359.287 13.3711 359.195 13.0227 359.005 12.7289C358.763 12.3506 358.393 12.1608 357.893 12.1608C357.437 12.1608 357.065 12.3454 356.781 12.7159C356.549 13.011 356.412 13.3633 356.367 13.7754H359.276Z" fill="white"/>
<path d="M173.095 52H6.6575C2.99754 52 0 49.0734 0 45.5V6.5C0 2.92663 2.99754 2.74817e-06 6.6575 2.74817e-06H173.095C176.755 2.74817e-06 179.753 2.92663 179.753 6.5V45.5C179.753 49.0734 176.755 52 173.095 52Z" fill="#333333"/>
<path d="M63.1364 13.3168C63.1364 14.4023 62.8035 15.2717 62.1478 15.9201C61.3938 16.6887 60.4118 17.0754 59.2085 17.0754C58.0584 17.0754 57.0764 16.6822 56.2708 15.9071C55.4636 15.1206 55.0609 14.1553 55.0609 12.9999C55.0609 11.8446 55.4636 10.8793 56.2708 10.0993C57.0764 9.31769 58.0584 8.92444 59.2085 8.92444C59.781 8.92444 60.3269 9.03981 60.8479 9.25431C61.3672 9.47044 61.7899 9.76294 62.0962 10.1237L61.4005 10.8094C60.8662 10.1936 60.1389 9.88969 59.2085 9.88969C58.3696 9.88969 57.6423 10.1757 57.0248 10.7526C56.414 11.3311 56.1077 12.0802 56.1077 12.9999C56.1077 13.9197 56.414 14.6753 57.0248 15.2538C57.6423 15.8242 58.3696 16.1167 59.2085 16.1167C60.0989 16.1167 60.8479 15.8242 61.4387 15.2473C61.8282 14.8654 62.0496 14.3389 62.1078 13.6662H59.2085V12.7269H63.0765C63.1231 12.9301 63.1364 13.1267 63.1364 13.3168Z" fill="white" stroke="white" stroke-width="0.16" stroke-miterlimit="10"/>
<path d="M69.2729 10.0604H65.6396V12.5304H68.9151V13.4696H65.6396V15.9396H69.2729V16.8968H64.611V9.10327H69.2729V10.0604Z" fill="white" stroke="white" stroke-width="0.16" stroke-miterlimit="10"/>
<path d="M73.6037 16.8968H72.5751V10.0604H70.3465V9.10327H75.8339V10.0604H73.6037V16.8968Z" fill="white" stroke="white" stroke-width="0.16" stroke-miterlimit="10"/>
<path d="M79.8051 16.8968V9.10327H80.832V16.8968H79.8051Z" fill="white" stroke="white" stroke-width="0.16" stroke-miterlimit="10"/>
<path d="M85.3841 16.8968H84.3639V10.0604H82.127V9.10327H87.621V10.0604H85.3841V16.8968Z" fill="white" stroke="white" stroke-width="0.16" stroke-miterlimit="10"/>
<path d="M98.0101 15.8941C97.2229 16.6822 96.2475 17.0754 95.0841 17.0754C93.9141 17.0754 92.9388 16.6822 92.1515 15.8941C91.3659 15.1076 90.9748 14.1423 90.9748 12.9999C90.9748 11.8576 91.3659 10.8923 92.1515 10.1058C92.9388 9.31769 93.9141 8.92444 95.0841 8.92444C96.2409 8.92444 97.2162 9.31769 98.0035 10.1123C98.7957 10.9053 99.1868 11.8641 99.1868 12.9999C99.1868 14.1423 98.7957 15.1076 98.0101 15.8941ZM92.9121 15.2408C93.5046 15.8242 94.2253 16.1167 95.0841 16.1167C95.9363 16.1167 96.6636 15.8242 97.2495 15.2408C97.8403 14.6574 98.1399 13.9083 98.1399 12.9999C98.1399 12.0916 97.8403 11.3424 97.2495 10.7591C96.6636 10.1757 95.9363 9.88319 95.0841 9.88319C94.2253 9.88319 93.5046 10.1757 92.9121 10.7591C92.3213 11.3424 92.0217 12.0916 92.0217 12.9999C92.0217 13.9083 92.3213 14.6574 92.9121 15.2408Z" fill="white" stroke="white" stroke-width="0.16" stroke-miterlimit="10"/>
<path d="M100.63 16.8968V9.10327H101.878L105.759 15.1645H105.804L105.759 13.6663V9.10327H106.786V16.8968H105.714L101.65 10.5365H101.605L101.65 12.0413V16.8968H100.63Z" fill="white" stroke="white" stroke-width="0.16" stroke-miterlimit="10"/>
<path d="M90.7218 28.2783C87.5944 28.2783 85.0396 30.602 85.0396 33.8082C85.0396 36.9883 87.5944 39.3364 90.7218 39.3364C93.8558 39.3364 96.4106 36.9883 96.4106 33.8082C96.4106 30.602 93.8558 28.2783 90.7218 28.2783ZM90.7218 37.1589C89.0058 37.1589 87.5295 35.776 87.5295 33.8082C87.5295 31.8143 89.0058 30.4558 90.7218 30.4558C92.4377 30.4558 93.9207 31.8143 93.9207 33.8082C93.9207 35.776 92.4377 37.1589 90.7218 37.1589ZM78.3238 28.2783C75.1898 28.2783 72.6417 30.602 72.6417 33.8082C72.6417 36.9883 75.1898 39.3364 78.3238 39.3364C81.4562 39.3364 84.006 36.9883 84.006 33.8082C84.006 30.602 81.4562 28.2783 78.3238 28.2783ZM78.3238 37.1589C76.6062 37.1589 75.1249 35.776 75.1249 33.8082C75.1249 31.8143 76.6062 30.4558 78.3238 30.4558C80.0398 30.4558 81.5161 31.8143 81.5161 33.8082C81.5161 35.776 80.0398 37.1589 78.3238 37.1589ZM63.5708 29.9732V32.3229H69.3179C69.1498 33.6359 68.7004 34.6012 68.0114 35.2739C67.1725 36.0864 65.866 36.9883 63.5708 36.9883C60.034 36.9883 57.2645 34.2014 57.2645 30.7483C57.2645 27.2952 60.034 24.5083 63.5708 24.5083C65.4832 24.5083 66.8746 25.2379 67.9015 26.1837L69.5975 24.5278C68.1612 23.1888 66.2505 22.1602 63.5708 22.1602C58.7208 22.1602 54.6448 26.013 54.6448 30.7483C54.6448 35.4835 58.7208 39.3364 63.5708 39.3364C66.1922 39.3364 68.1612 38.4979 69.709 36.9249C71.2952 35.3763 71.7895 33.1988 71.7895 31.4405C71.7895 30.8945 71.7429 30.3924 71.6597 29.9732H63.5708ZM123.898 31.7948C123.43 30.5582 121.987 28.2783 119.048 28.2783C116.135 28.2783 113.71 30.5192 113.71 33.8082C113.71 36.9054 116.11 39.3364 119.327 39.3364C121.929 39.3364 123.43 37.7878 124.048 36.8859L122.117 35.6298C121.473 36.5495 120.596 37.1589 119.327 37.1589C118.067 37.1589 117.164 36.595 116.584 35.4835L124.159 32.4237L123.898 31.7948ZM116.175 33.6359C116.11 31.5039 117.871 30.4119 119.133 30.4119C120.121 30.4119 120.96 30.8945 121.24 31.5852L116.175 33.6359ZM110.019 39H112.508V22.75H110.019V39ZM105.941 29.51H105.858C105.298 28.8633 104.232 28.2783 102.88 28.2783C100.044 28.2783 97.4508 30.7093 97.4508 33.826C97.4508 36.9249 100.044 39.3364 102.88 39.3364C104.232 39.3364 105.298 38.7465 105.858 38.0803H105.941V38.8733C105.941 40.9874 104.784 42.1233 102.918 42.1233C101.397 42.1233 100.453 41.0508 100.064 40.1489L97.8986 41.0313C98.5227 42.497 100.175 44.3008 102.918 44.3008C105.838 44.3008 108.301 42.6238 108.301 38.5434V28.6147H105.941V29.51ZM103.093 37.1589C101.377 37.1589 99.9407 35.7565 99.9407 33.826C99.9407 31.8777 101.377 30.4558 103.093 30.4558C104.784 30.4558 106.117 31.8777 106.117 33.826C106.117 35.7565 104.784 37.1589 103.093 37.1589ZM135.555 22.75H129.6V39H132.083V32.8429H135.555C138.313 32.8429 141.018 30.8945 141.018 27.7957C141.018 24.6984 138.306 22.75 135.555 22.75ZM135.62 30.5825H132.083V25.0104H135.62C137.474 25.0104 138.533 26.5135 138.533 27.7957C138.533 29.0534 137.474 30.5825 135.62 30.5825ZM150.97 28.2474C149.176 28.2474 147.311 29.0209 146.543 30.7353L148.747 31.6372C149.221 30.7353 150.093 30.4428 151.015 30.4428C152.304 30.4428 153.61 31.1984 153.63 32.5325V32.7032C153.181 32.4497 152.219 32.0743 151.035 32.0743C148.662 32.0743 146.244 33.3499 146.244 35.7305C146.244 37.908 148.188 39.3104 150.373 39.3104C152.044 39.3104 152.966 38.5743 153.545 37.7179H153.63V38.974H156.029V32.7405C156.029 29.8594 153.825 28.2474 150.97 28.2474ZM150.671 37.1524C149.859 37.1524 148.727 36.7592 148.727 35.776C148.727 34.5183 150.138 34.0357 151.36 34.0357C152.453 34.0357 152.966 34.2713 153.63 34.5817C153.435 36.0864 152.109 37.1524 150.671 37.1524ZM164.766 28.6033L161.912 35.6477H161.827L158.876 28.6033H156.198L160.632 38.4475L158.102 43.9254H160.697L167.529 28.6033H164.766ZM142.382 39H144.872V22.75H142.382V39Z" fill="white"/>
<path d="M13.8942 9.80032C13.5031 10.2001 13.2767 10.8224 13.2767 11.6284V40.3779C13.2767 41.1839 13.5031 41.8063 13.8942 42.2061L13.9908 42.2938L30.4914 26.1901V25.8098L13.9908 9.70607L13.8942 9.80032Z" fill="url(#paint0_linear_308_567)"/>
<path d="M35.9854 31.5607L30.4913 26.19V25.8098L35.9921 20.4392L36.1153 20.509L42.6296 24.1279C44.4887 25.1549 44.4887 26.8449 42.6296 27.8784L36.1153 31.4908L35.9854 31.5607Z" fill="url(#paint1_linear_308_567)"/>
<path d="M36.1153 31.4908L30.4914 26L13.8942 42.2061C14.5117 42.8398 15.5187 42.9162 16.6637 42.2825L36.1153 31.4908Z" fill="url(#paint2_linear_308_567)"/>
<path d="M36.1153 20.5091L16.6637 9.7175C15.5187 9.09025 14.5117 9.16663 13.8942 9.80038L30.4914 26L36.1153 20.5091Z" fill="url(#paint3_linear_308_567)"/>
<defs>
<linearGradient id="paint0_linear_308_567" x1="29.0263" y1="40.6773" x2="7.21544" y2="18.338" gradientUnits="userSpaceOnUse">
<stop stop-color="#00A0FF"/>
<stop offset="0.0066" stop-color="#00A1FF"/>
<stop offset="0.2601" stop-color="#00BEFF"/>
<stop offset="0.5122" stop-color="#00D2FF"/>
<stop offset="0.7604" stop-color="#00DFFF"/>
<stop offset="1" stop-color="#00E3FF"/>
</linearGradient>
<linearGradient id="paint1_linear_308_567" x1="45.0505" y1="25.9981" x2="12.8323" y2="25.9981" gradientUnits="userSpaceOnUse">
<stop stop-color="#FFE000"/>
<stop offset="0.4087" stop-color="#FFBD00"/>
<stop offset="0.7754" stop-color="#FFA500"/>
<stop offset="1" stop-color="#FF9C00"/>
</linearGradient>
<linearGradient id="paint2_linear_308_567" x1="33.0572" y1="23.015" x2="3.47987" y2="-7.27896" gradientUnits="userSpaceOnUse">
<stop stop-color="#FF3A44"/>
<stop offset="1" stop-color="#C31162"/>
</linearGradient>
<linearGradient id="paint3_linear_308_567" x1="9.71638" y1="51.7709" x2="22.924" y2="38.2434" gradientUnits="userSpaceOnUse">
<stop stop-color="#32A071"/>
<stop offset="0.0685" stop-color="#2DA771"/>
<stop offset="0.4762" stop-color="#15CF74"/>
<stop offset="0.8009" stop-color="#06E775"/>
<stop offset="1" stop-color="#00F076"/>
</linearGradient>
</defs>
</svg>
